<svg xmlns="http://www.w3.org/2000/svg" xmlns:xlink="http://www.w3.org/1999/xlink" viewBox="0 0 260.96 331.89"><defs><style>.cls-1{fill:url(#linear-gradient);}.cls-2{fill:url(#linear-gradient-2);}.cls-3{fill:url(#linear-gradient-3);}.cls-4{fill:url(#linear-gradient-4);}.cls-5{fill:url(#linear-gradient-5);}.cls-6{fill:url(#linear-gradient-6);}</style><linearGradient id="linear-gradient" x1="386.84" y1="311.38" x2="426.71" y2="359.8" gradientUnits="userSpaceOnUse"><stop offset="0" stop-color="#8345ff"/><stop offset="0.16" stop-color="#8845fe"/><stop offset="0.35" stop-color="#9645fb"/><stop offset="0.54" stop-color="#ad45f6"/><stop offset="0.75" stop-color="#ce44ef"/><stop offset="0.97" stop-color="#f844e6"/><stop offset="1" stop-color="#ff44e4"/></linearGradient><linearGradient id="linear-gradient-2" x1="404.1" y1="311.93" x2="446.38" y2="356.98" gradientUnits="userSpaceOnUse"><stop offset="0" stop-color="#723cde"/><stop offset="0.19" stop-color="#773cdc"/><stop offset="0.41" stop-color="#853bd6"/><stop offset="0.64" stop-color="#9c3acd"/><stop offset="0.88" stop-color="#bd38c0"/><stop offset="1" stop-color="#cf37b9"/></linearGradient><linearGradient id="linear-gradient-3" x1="423.7" y1="302.93" x2="464.07" y2="365.05" gradientUnits="userSpaceOnUse"><stop offset="0" stop-color="#552da6"/><stop offset="0.22" stop-color="#5a2da4"/><stop offset="0.47" stop-color="#682ca0"/><stop offset="0.73" stop-color="#7f2b98"/><stop offset="1" stop-color="#9e2a8d"/></linearGradient><linearGradient id="linear-gradient-4" x1="299.97" y1="391.3" x2="537.93" y2="391.3" xlink:href="#linear-gradient"/><linearGradient id="linear-gradient-5" x1="310.97" y1="391.3" x2="548.93" y2="391.3" xlink:href="#linear-gradient-2"/><linearGradient id="linear-gradient-6" x1="274.98" y1="251.1" x2="549.62" y2="531.01" xlink:href="#linear-gradient-3"/></defs><title>rerunlogo</title><g id="Layer_12" data-name="Layer 12"><path class="cls-1" d="M375.54,321.13,375.09,291a5,5,0,0,1,7.49-4.48L408.9,301.2l26.33,14.68a5,5,0,0,1,.13,8.72l-25.88,15.46L383.6,355.52a5,5,0,0,1-7.61-4.25Z" transform="translate(-299.97 -225.36)"/></g><g id="Layer_11" data-name="Layer 11"><path class="cls-2" d="M394.81,321.13l-.42-28.55a6,6,0,0,1,8.84-5.29l24.94,13.91,24.95,13.91a6,6,0,0,1,.15,10.3l-24.52,14.65-24.51,14.65a6,6,0,0,1-9-5Z" transform="translate(-299.97 -225.36)"/></g><g id="Layer_5" data-name="Layer 5"><path class="cls-3" d="M413.6,321.13l-.41-27.73a6.42,6.42,0,0,1,9.54-5.71L447,301.2l24.23,13.51a6.42,6.42,0,0,1,.16,11.12l-23.81,14.23-23.81,14.23a6.43,6.43,0,0,1-9.72-5.42Z" transform="translate(-299.97 -225.36)"/></g><g id="Layer_7" data-name="Layer 7"><path class="cls-4" d="M490.15,557.25h41.93a5.84,5.84,0,0,0,5.17-8.56l-68.82-130.6a5.84,5.84,0,0,1,3.05-8.16,89.34,89.34,0,0,0,10.4-4.83,83.86,83.86,0,0,0,33.87-33.64q12.09-21.78,12.09-50.3t-12-50.3a83.23,83.23,0,0,0-33.76-33.64q-21.8-11.86-50.53-11.86H305.8A5.83,5.83,0,0,0,300,231.2V551.41a5.83,5.83,0,0,0,5.83,5.84h34.86a5.84,5.84,0,0,0,5.84-5.84V422.8a5.84,5.84,0,0,1,5.84-5.84h59.84a5.84,5.84,0,0,1,5.21,3.21L484.94,554A5.83,5.83,0,0,0,490.15,557.25ZM346.5,275.45a5.83,5.83,0,0,1,5.84-5.84h81.07A43.39,43.39,0,0,1,457,276a42.3,42.3,0,0,1,15.74,18.13q5.58,11.75,5.58,27t-5.58,27a42,42,0,0,1-15.86,18.14,43.61,43.61,0,0,1-23.49,6.38H352.34a5.83,5.83,0,0,1-5.84-5.84Z" transform="translate(-299.97 -225.36)"/></g><g id="Layer_10" data-name="Layer 10"><path class="cls-5" d="M501.15,557.25h41.93a5.84,5.84,0,0,0,5.17-8.56l-68.82-130.6a5.84,5.84,0,0,1,3.05-8.16,89.34,89.34,0,0,0,10.4-4.83,83.86,83.86,0,0,0,33.87-33.64q12.09-21.78,12.09-50.3t-12-50.3a83.23,83.23,0,0,0-33.76-33.64q-21.8-11.86-50.53-11.86H316.8A5.83,5.83,0,0,0,311,231.2V551.41a5.83,5.83,0,0,0,5.83,5.84h34.86a5.84,5.84,0,0,0,5.84-5.84V422.8a5.84,5.84,0,0,1,5.84-5.84h59.84a5.84,5.84,0,0,1,5.21,3.21L495.94,554A5.83,5.83,0,0,0,501.15,557.25ZM357.5,275.45a5.83,5.83,0,0,1,5.84-5.84h81.07A43.39,43.39,0,0,1,468,276a42.3,42.3,0,0,1,15.74,18.13q5.58,11.75,5.58,27t-5.58,27a42,42,0,0,1-15.86,18.14,43.61,43.61,0,0,1-23.49,6.38H363.34a5.83,5.83,0,0,1-5.84-5.84Z" transform="translate(-299.97 -225.36)"/></g><g id="Layer_8" data-name="Layer 8"><path class="cls-6" d="M513.15,557.25h41.93a5.84,5.84,0,0,0,5.17-8.56l-68.82-130.6a5.84,5.84,0,0,1,3.05-8.16,89.34,89.34,0,0,0,10.4-4.83,83.86,83.86,0,0,0,33.87-33.64q12.09-21.78,12.09-50.3t-12-50.3a83.23,83.23,0,0,0-33.76-33.64q-21.8-11.86-50.53-11.86H328.8A5.83,5.83,0,0,0,323,231.2V551.41a5.83,5.83,0,0,0,5.83,5.84h34.86a5.84,5.84,0,0,0,5.84-5.84V422.8a5.84,5.84,0,0,1,5.84-5.84h59.84a5.84,5.84,0,0,1,5.21,3.21L507.94,554A5.83,5.83,0,0,0,513.15,557.25ZM369.5,275.45a5.83,5.83,0,0,1,5.84-5.84h81.07A43.39,43.39,0,0,1,480,276a42.3,42.3,0,0,1,15.74,18.13q5.58,11.75,5.58,27t-5.58,27a42,42,0,0,1-15.86,18.14,43.61,43.61,0,0,1-23.49,6.38H375.34a5.83,5.83,0,0,1-5.84-5.84Z" transform="translate(-299.97 -225.36)"/></g></svg>